<mxfile host="app.diagrams.net" modified="2022-06-29T21:05:43.903Z" agent="5.0 (Windows NT 10.0; Win64; x64) AppleWebKit/537.36 (KHTML, like Gecko) Chrome/102.0.0.0 Safari/537.36" etag="PYkGs63SJvwX_8lfNP2k" version="20.0.1" type="github">
  <diagram id="C5RBs43oDa-KdzZeNtuy" name="Page-1">
    <mxGraphModel dx="1038" dy="539" grid="1" gridSize="10" guides="1" tooltips="1" connect="1" arrows="1" fold="1" page="1" pageScale="1" pageWidth="827" pageHeight="1169" math="0" shadow="0">
      <root>
        <mxCell id="WIyWlLk6GJQsqaUBKTNV-0" />
        <mxCell id="WIyWlLk6GJQsqaUBKTNV-1" parent="WIyWlLk6GJQsqaUBKTNV-0" />
        <mxCell id="WIyWlLk6GJQsqaUBKTNV-3" value="Estadisticas" style="rounded=1;whiteSpace=wrap;html=1;fontSize=12;glass=0;strokeWidth=1;shadow=0;" parent="WIyWlLk6GJQsqaUBKTNV-1" vertex="1">
          <mxGeometry x="90" y="60" width="120" height="40" as="geometry" />
        </mxCell>
        <mxCell id="xLu6-i7ImUy8HdTEaYHx-5" value="" style="edgeStyle=orthogonalEdgeStyle;rounded=0;orthogonalLoop=1;jettySize=auto;html=1;" edge="1" parent="WIyWlLk6GJQsqaUBKTNV-1" source="WIyWlLk6GJQsqaUBKTNV-7" target="xLu6-i7ImUy8HdTEaYHx-4">
          <mxGeometry relative="1" as="geometry" />
        </mxCell>
        <mxCell id="xLu6-i7ImUy8HdTEaYHx-10" value="" style="edgeStyle=orthogonalEdgeStyle;rounded=0;orthogonalLoop=1;jettySize=auto;html=1;" edge="1" parent="WIyWlLk6GJQsqaUBKTNV-1" source="WIyWlLk6GJQsqaUBKTNV-7" target="xLu6-i7ImUy8HdTEaYHx-9">
          <mxGeometry relative="1" as="geometry" />
        </mxCell>
        <mxCell id="xLu6-i7ImUy8HdTEaYHx-17" value="" style="edgeStyle=orthogonalEdgeStyle;rounded=0;orthogonalLoop=1;jettySize=auto;html=1;" edge="1" parent="WIyWlLk6GJQsqaUBKTNV-1" source="WIyWlLk6GJQsqaUBKTNV-7" target="xLu6-i7ImUy8HdTEaYHx-16">
          <mxGeometry relative="1" as="geometry" />
        </mxCell>
        <mxCell id="xLu6-i7ImUy8HdTEaYHx-22" value="" style="edgeStyle=orthogonalEdgeStyle;rounded=0;orthogonalLoop=1;jettySize=auto;html=1;" edge="1" parent="WIyWlLk6GJQsqaUBKTNV-1" source="WIyWlLk6GJQsqaUBKTNV-7" target="xLu6-i7ImUy8HdTEaYHx-21">
          <mxGeometry relative="1" as="geometry" />
        </mxCell>
        <mxCell id="WIyWlLk6GJQsqaUBKTNV-7" value="Deportistas" style="rounded=1;whiteSpace=wrap;html=1;fontSize=12;glass=0;strokeWidth=1;shadow=0;" parent="WIyWlLk6GJQsqaUBKTNV-1" vertex="1">
          <mxGeometry x="270" y="220" width="120" height="40" as="geometry" />
        </mxCell>
        <mxCell id="xLu6-i7ImUy8HdTEaYHx-0" value="Deporte" style="rounded=1;whiteSpace=wrap;html=1;fontSize=12;glass=0;strokeWidth=1;shadow=0;" vertex="1" parent="WIyWlLk6GJQsqaUBKTNV-1">
          <mxGeometry x="470" y="60" width="120" height="40" as="geometry" />
        </mxCell>
        <mxCell id="xLu6-i7ImUy8HdTEaYHx-2" value="CaracterÃ­sticas&amp;nbsp;" style="rounded=1;whiteSpace=wrap;html=1;fontSize=12;glass=0;strokeWidth=1;shadow=0;" vertex="1" parent="WIyWlLk6GJQsqaUBKTNV-1">
          <mxGeometry x="470" y="360" width="120" height="40" as="geometry" />
        </mxCell>
        <mxCell id="xLu6-i7ImUy8HdTEaYHx-3" value="ID" style="rounded=1;whiteSpace=wrap;html=1;fontSize=12;glass=0;strokeWidth=1;shadow=0;" vertex="1" parent="WIyWlLk6GJQsqaUBKTNV-1">
          <mxGeometry x="90" y="370" width="120" height="40" as="geometry" />
        </mxCell>
        <mxCell id="xLu6-i7ImUy8HdTEaYHx-6" value="" style="edgeStyle=orthogonalEdgeStyle;rounded=0;orthogonalLoop=1;jettySize=auto;html=1;" edge="1" parent="WIyWlLk6GJQsqaUBKTNV-1" source="xLu6-i7ImUy8HdTEaYHx-4" target="WIyWlLk6GJQsqaUBKTNV-3">
          <mxGeometry relative="1" as="geometry" />
        </mxCell>
        <mxCell id="xLu6-i7ImUy8HdTEaYHx-4" value="Tiene" style="rhombus;whiteSpace=wrap;html=1;rounded=1;glass=0;strokeWidth=1;shadow=0;" vertex="1" parent="WIyWlLk6GJQsqaUBKTNV-1">
          <mxGeometry x="120" y="130" width="80" height="80" as="geometry" />
        </mxCell>
        <mxCell id="xLu6-i7ImUy8HdTEaYHx-7" value="1" style="text;html=1;resizable=0;autosize=1;align=center;verticalAlign=middle;points=[];fillColor=none;strokeColor=none;rounded=0;" vertex="1" parent="WIyWlLk6GJQsqaUBKTNV-1">
          <mxGeometry x="240" y="210" width="20" height="20" as="geometry" />
        </mxCell>
        <mxCell id="xLu6-i7ImUy8HdTEaYHx-8" value="N" style="text;html=1;resizable=0;autosize=1;align=center;verticalAlign=middle;points=[];fillColor=none;strokeColor=none;rounded=0;" vertex="1" parent="WIyWlLk6GJQsqaUBKTNV-1">
          <mxGeometry x="170" y="110" width="20" height="20" as="geometry" />
        </mxCell>
        <mxCell id="xLu6-i7ImUy8HdTEaYHx-11" value="" style="edgeStyle=orthogonalEdgeStyle;rounded=0;orthogonalLoop=1;jettySize=auto;html=1;" edge="1" parent="WIyWlLk6GJQsqaUBKTNV-1" source="xLu6-i7ImUy8HdTEaYHx-9" target="xLu6-i7ImUy8HdTEaYHx-0">
          <mxGeometry relative="1" as="geometry" />
        </mxCell>
        <mxCell id="xLu6-i7ImUy8HdTEaYHx-9" value="Realiza" style="rhombus;whiteSpace=wrap;html=1;rounded=1;glass=0;strokeWidth=1;shadow=0;" vertex="1" parent="WIyWlLk6GJQsqaUBKTNV-1">
          <mxGeometry x="490" y="200" width="80" height="80" as="geometry" />
        </mxCell>
        <mxCell id="xLu6-i7ImUy8HdTEaYHx-12" value="1" style="text;html=1;resizable=0;autosize=1;align=center;verticalAlign=middle;points=[];fillColor=none;strokeColor=none;rounded=0;" vertex="1" parent="WIyWlLk6GJQsqaUBKTNV-1">
          <mxGeometry x="403" y="215" width="20" height="20" as="geometry" />
        </mxCell>
        <mxCell id="xLu6-i7ImUy8HdTEaYHx-13" value="N" style="text;html=1;resizable=0;autosize=1;align=center;verticalAlign=middle;points=[];fillColor=none;strokeColor=none;rounded=0;" vertex="1" parent="WIyWlLk6GJQsqaUBKTNV-1">
          <mxGeometry x="500" y="110" width="20" height="20" as="geometry" />
        </mxCell>
        <mxCell id="xLu6-i7ImUy8HdTEaYHx-14" value="1" style="text;html=1;resizable=0;autosize=1;align=center;verticalAlign=middle;points=[];fillColor=none;strokeColor=none;rounded=0;" vertex="1" parent="WIyWlLk6GJQsqaUBKTNV-1">
          <mxGeometry x="550" y="110" width="20" height="20" as="geometry" />
        </mxCell>
        <mxCell id="xLu6-i7ImUy8HdTEaYHx-15" value="N" style="text;html=1;resizable=0;autosize=1;align=center;verticalAlign=middle;points=[];fillColor=none;strokeColor=none;rounded=0;" vertex="1" parent="WIyWlLk6GJQsqaUBKTNV-1">
          <mxGeometry x="404" y="240" width="20" height="20" as="geometry" />
        </mxCell>
        <mxCell id="xLu6-i7ImUy8HdTEaYHx-18" value="" style="edgeStyle=orthogonalEdgeStyle;rounded=0;orthogonalLoop=1;jettySize=auto;html=1;" edge="1" parent="WIyWlLk6GJQsqaUBKTNV-1" source="xLu6-i7ImUy8HdTEaYHx-16" target="xLu6-i7ImUy8HdTEaYHx-3">
          <mxGeometry relative="1" as="geometry" />
        </mxCell>
        <mxCell id="xLu6-i7ImUy8HdTEaYHx-16" value="Tiene" style="rhombus;whiteSpace=wrap;html=1;rounded=1;glass=0;strokeWidth=1;shadow=0;" vertex="1" parent="WIyWlLk6GJQsqaUBKTNV-1">
          <mxGeometry x="120" y="266" width="80" height="80" as="geometry" />
        </mxCell>
        <mxCell id="xLu6-i7ImUy8HdTEaYHx-19" value="1" style="text;html=1;resizable=0;autosize=1;align=center;verticalAlign=middle;points=[];fillColor=none;strokeColor=none;rounded=0;" vertex="1" parent="WIyWlLk6GJQsqaUBKTNV-1">
          <mxGeometry x="240" y="246" width="20" height="20" as="geometry" />
        </mxCell>
        <mxCell id="xLu6-i7ImUy8HdTEaYHx-20" value="1" style="text;html=1;resizable=0;autosize=1;align=center;verticalAlign=middle;points=[];fillColor=none;strokeColor=none;rounded=0;" vertex="1" parent="WIyWlLk6GJQsqaUBKTNV-1">
          <mxGeometry x="170" y="347" width="20" height="20" as="geometry" />
        </mxCell>
        <mxCell id="xLu6-i7ImUy8HdTEaYHx-23" value="" style="edgeStyle=orthogonalEdgeStyle;rounded=0;orthogonalLoop=1;jettySize=auto;html=1;" edge="1" parent="WIyWlLk6GJQsqaUBKTNV-1" source="xLu6-i7ImUy8HdTEaYHx-21" target="xLu6-i7ImUy8HdTEaYHx-2">
          <mxGeometry relative="1" as="geometry" />
        </mxCell>
        <mxCell id="xLu6-i7ImUy8HdTEaYHx-21" value="Tiene" style="rhombus;whiteSpace=wrap;html=1;rounded=1;glass=0;strokeWidth=1;shadow=0;" vertex="1" parent="WIyWlLk6GJQsqaUBKTNV-1">
          <mxGeometry x="334" y="330" width="80" height="80" as="geometry" />
        </mxCell>
        <mxCell id="xLu6-i7ImUy8HdTEaYHx-24" value="1" style="text;html=1;resizable=0;autosize=1;align=center;verticalAlign=middle;points=[];fillColor=none;strokeColor=none;rounded=0;" vertex="1" parent="WIyWlLk6GJQsqaUBKTNV-1">
          <mxGeometry x="334" y="266" width="20" height="20" as="geometry" />
        </mxCell>
        <mxCell id="xLu6-i7ImUy8HdTEaYHx-26" value="N" style="text;html=1;resizable=0;autosize=1;align=center;verticalAlign=middle;points=[];fillColor=none;strokeColor=none;rounded=0;" vertex="1" parent="WIyWlLk6GJQsqaUBKTNV-1">
          <mxGeometry x="430" y="346" width="20" height="20" as="geometry" />
        </mxCell>
      </root>
    </mxGraphModel>
  </diagram>
</mxfile>
